<svg aria-hidden="true" style="position: absolute; width: 0; height: 0; overflow: hidden;" version="1.1" xmlns="http://www.w3.org/2000/svg" xmlns:xlink="http://www.w3.org/1999/xlink">
<defs>
<symbol id="icon-iconmonstr-magnifier-4" viewBox="0 0 32 32">
<path d="M30.815 26.744l-6.636-6.636c1.287-2.027 2.031-4.429 2.031-7.001 0-7.227-5.879-13.107-13.105-13.107s-13.104 5.88-13.104 13.107 5.877 13.107 13.105 13.107c2.445 0 4.736-0.673 6.696-1.844l6.695 6.695c2.859 2.855 7.179-1.461 4.319-4.32zM4.063 13.107c0-4.985 4.057-9.043 9.043-9.043s9.043 4.056 9.043 9.043-4.057 9.043-9.043 9.043-9.043-4.057-9.043-9.043zM6.743 10.755c2.645-6.132 11.552-5.421 13.229 0.999-3.379-3.965-9.324-4.392-13.229-0.999z"></path>
</symbol>
<symbol id="icon-search" viewBox="0 0 32 32">
<path d="M31.008 27.231l-7.58-6.447c-0.784-0.705-1.622-1.029-2.299-0.998 1.789-2.096 2.87-4.815 2.87-7.787 0-6.627-5.373-12-12-12s-12 5.373-12 12 5.373 12 12 12c2.972 0 5.691-1.081 7.787-2.87-0.031 0.677 0.293 1.515 0.998 2.299l6.447 7.58c1.104 1.226 2.907 1.33 4.007 0.23s0.997-2.903-0.23-4.007zM12 20c-4.418 0-8-3.582-8-8s3.582-8 8-8 8 3.582 8 8-3.582 8-8 8z"></path>
</symbol>
</defs>
</svg>
